<?xml version="1.0" standalone="no"?>
<!DOCTYPE svg PUBLIC "-//W3C//DTD SVG 1.1//EN"
  "http://www.w3.org/Graphics/SVG/1.1/DTD/svg11.dtd">
<svg width="697.4299926757812mm" height="696.7179870605468mm" viewBox="-348.7149963378906 -348.3529968261718 697.4299926757812 696.7179870605468" xmlns="http://www.w3.org/2000/svg" version="1.1">
	<title>svgOutput</title>
	<desc>made with tinkercad</desc>
<path d="M 346.5159912109375 -28.513000488281243 L 347.7002868652344 1.1102230246251565e-16 L 347.7149963378906 0.35400000214576727 L 343.06201171875 56.668998718261705 L 329.81201171875 110.08000183105466 L 308.67999267578125 159.8760070800781 L 287.7137756347656 193.55932617187494 L 280.3789978027344 205.34300231933588 L 262.1440124511719 226.55325317382807 L 245.6219940185547 245.77099609374994 L 205.125 280.4450073242187 L 176.36927795410156 298.2631225585937 L 159.60000610351562 308.6539916992187 L 109.76200103759766 329.6849975585937 L 56.32400131225586 342.8259887695312 L 0 347.36499023437494 L -25.309688568115234 345.32534790039057 L -56.32400131225586 342.8259887695312 L -77.3673095703125 337.6512145996093 L -109.76200103759766 329.6849975585937 L -128.01747131347656 321.9814147949218 L -159.60000610351562 308.6539916992187 L -176.36927795410156 298.2631225585937 L -205.125 280.4450073242187 L -245.6219940185547 245.77099609374994 L -262.1440124511719 226.55268859863276 L -280.37799072265625 205.34300231933588 L -308.67999267578125 159.8760070800781 L -329.81201171875 110.08000183105466 L -343.06201171875 56.668998718261705 L -347.7149963378906 0.35400000214576727 L -347.6878356933594 1.1102230246251565e-16 L -343.6059875488281 -53.203998565673814 L -331.67401123046875 -104.27400207519528 L -312.5150146484375 -152.21699523925778 L -286.7229919433594 -196.38999938964838 L -262.1440124511719 -227.0955963134765 L -254.89300537109375 -236.15400695800776 L -226.98629760742188 -262.1440124511718 L -217.6199951171875 -270.8670043945312 L -215.8876953125 -272.0605163574218 L -175.4980010986328 -299.8880004882812 L -140.25892639160156 -317.1279907226562 L -132.53453063964844 -320.90701293945307 L -129.12100219726562 -322.5769958496093 L -79.08599853515625 -338.2909851074218 L -25.985000610351562 -346.39199829101557 L 0 -347.2567749023437 L 2.8910000324249268 -347.3529968261718 L 15.118000030517578 -346.74673461914057 L 31.548999786376953 -345.93200683593744 L 59.85100173950195 -342.1759948730468 L 87.66200256347656 -336.1329956054687 L 114.84300231933594 -327.8510131835937 L 131.07200622558594 -321.41690063476557 L 141.2570037841797 -317.3789978027343 L 166.76800537109375 -304.7640075683593 L 191.23800659179688 -290.05398559570307 L 214.5290069580078 -273.29699707031244 L 227.59732055664062 -262.1440124511718 L 236.50599670410156 -254.54100036621088 L 256.85101318359375 -234.02799987792963 L 262.1440124511719 -227.72407531738276 L 270.6246643066406 -217.62365722656244 L 275.302001953125 -212.052993774414 L 291.79901123046875 -188.7510070800781 L 306.2850036621094 -164.25399780273435 L 318.7019958496094 -138.69599914550778 L 328.99200439453125 -112.20899963378903 L 337.09600830078125 -84.92800140380858 L 342.9570007324219 -56.98500061035155 L 346.5159912109375 -28.513000488281243 M 264.6239929199219 -90.18599700927733 L 262.1440124511719 -96.56999206542966 L 256.3479919433594 -111.4899978637695 L 246.36000061035156 -132.0480041503906 L 234.70799255371094 -151.75199890136716 L 221.43800354003906 -170.49499511718747 L 206.59800720214844 -188.16999816894528 L 190.23300170898438 -204.66999816894526 L 172.55599975585938 -219.7559967041015 L 153.8209991455078 -233.2350006103515 L 134.13900756835938 -245.06599426269526 L 113.62000274658203 -255.21299743652338 L 96.13864135742188 -262.1440124511718 L 92.37300109863281 -263.63699340820307 L 70.51000213623047 -270.29800415039057 L 48.14099884033203 -275.1589965820312 L 25.375999450683594 -278.1799926757812 L 2.325000047683716 -279.32299804687494 L -1.233731324566667e-12 -279.24560546874994 L -20.900999069213867 -278.5499877929687 L -63.61199951171875 -272.0339965820312 L -95.1019515991211 -262.1440124511718 L -103.85800170898438 -259.3940124511718 L -141.16099548339844 -241.14500427246088 L -175.04200744628906 -217.80200195312494 L -205.0229949951172 -189.88000488281247 L -230.625 -157.8970031738281 L -251.37100219726562 -122.3659973144531 L -262.1440124511719 -95.4069366455078 L -266.781005859375 -83.80300140380858 L -276.37799072265625 -42.72499847412109 L -279.6568298339844 1.1102230246251565e-16 L -279.6839904785156 0.35400000214576727 L -275.9490051269531 45.65700149536132 L -265.2980041503906 88.62599945068358 L -262.1440124511719 96.06111907958982 L -248.3040008544922 128.6869964599609 L -225.54100036621094 165.26600646972653 L -197.5850067138672 197.78999328613276 L -165.00999450683594 225.68699645996088 L -128.38900756835938 248.38200378417963 L -88.2979965209961 265.30300903320307 L -45.310001373291016 275.87600708007807 L 0 279.52700805664057 L 45.310001373291016 275.87600708007807 L 88.2979965209961 265.30300903320307 L 128.38900756835938 248.38200378417963 L 165.00999450683594 225.68699645996088 L 197.5850067138672 197.78999328613276 L 225.54100036621094 165.26600646972653 L 248.3040008544922 128.6869964599609 L 262.1440124511719 96.06111907958982 L 265.2980041503906 88.62599945068358 L 275.9490051269531 45.65700149536132 L 279.6839904785156 0.35400000214576727 L 279.6692810058594 1.1102230246251565e-16 L 278.718994140625 -22.86499977111816 L 275.85699462890625 -45.76699829101562 L 271.14300537109375 -68.2429962158203 L 264.6239929199219 -90.18599700927733 M 15.118000030517578 -320.90701293945307 L 0 -320.90701293945307 L -15.118000030517578 -320.90701293945307 L -15.118000030517578 -317.1279907226562 L 0 -317.1279907226562 L 15.118000030517578 -317.1279907226562 L 15.118000030517578 -320.90701293945307 z" fill="none" stroke="rgb(255,0,0)" stroke-width="0.001mm" />
</svg>