<?xml version="1.0" standalone="no"?>
<!DOCTYPE svg PUBLIC "-//W3C//DTD SVG 1.1//EN"
  "http://www.w3.org/Graphics/SVG/1.1/DTD/svg11.dtd">
<svg width="274.7250061035156mm" height="274.66799926757807mm" viewBox="-137.36000061035156 -137.34100341796872 274.7250061035156 274.66799926757807" xmlns="http://www.w3.org/2000/svg" version="1.1">
	<title>svgOutput</title>
	<desc>made with tinkercad</desc>
<path d="M 136.3070068359375 -104.36199951171872 L 136.36500549316406 -102.65699768066403 L 136.27200317382812 -99.82199859619138 L 136.09559631347656 -98.30400085449216 L 135.94500732421875 -97.00800323486325 L 135.38499450683594 -94.23200225830077 L 134.5959930419922 -91.50700378417967 L 133.5800018310547 -88.84999847412108 L 132.33799743652344 -86.27600097656249 L 131.07200622558594 -84.13340759277342 L 130.875 -83.8000030517578 L 129.1909942626953 -81.43800354003905 L 127.29000091552734 -79.20500183105467 L 125.1729965209961 -77.11499786376952 L 106.16922760009766 -65.53600311279295 L 100.35600280761719 -61.99399948120116 L 76.44400024414062 -45.6240005493164 L 53.479000091552734 -28.048000335693352 L 31.5049991607666 -9.309000015258787 L 21.689302444458008 1.1102230246251565e-16 L 10.564000129699707 10.550999641418455 L 0 21.685667037963864 L -9.298999786376953 31.486999511718743 L -28.042999267578125 53.458000183105455 L -37.29100036621094 65.53600311279295 L -45.624000549316406 76.4189987182617 L -61.999000549316406 100.32900238037107 L -77.125 125.14299774169919 L -80.26556396484375 128.1639709472656 L -80.53900146484375 128.42700195312497 L -84.18193054199219 131.0720062255859 L -84.29900360107422 131.15699768066403 L -88.34200286865234 133.32099914550778 L -92.6050033569336 134.91200256347653 L -97.0250015258789 135.9160003662109 L -101.53900146484375 136.32699584960935 L -106.08499908447266 136.13200378417966 L -110.5989990234375 135.32499694824216 L -115.01899719238281 133.8919982910156 L -119.28099822998047 131.82299804687497 L -120.40279388427734 131.0720062255859 L -123.21700286865234 129.18800354003903 L -126.68399810791016 126.09600067138669 L -129.66000366210938 122.60700225830075 L -131.07200622558594 120.41271972656247 L -132.1219940185547 118.78099822998044 L -134.04600524902344 114.67600250244138 L -135.40899658203125 110.35399627685544 L -136.18800354003906 105.8710021972656 L -136.36000061035156 101.29000091552732 L -135.90199279785156 96.6669998168945 L -134.7899932861328 92.06099700927733 L -131.07200622558594 82.01745605468749 L -129.81224060058594 78.61444854736327 L -124.97076416015625 65.53600311279295 L -123.05799865722656 60.36899948120116 L -108.45600128173828 30.24500083923339 L -91.14800262451172 1.8509999513626094 L -89.7613754272461 1.1102230246251565e-16 L -71.2969970703125 -24.64800071716308 L -49.064998626708984 -49.091999053955064 L -24.614999771118164 -71.31700134277342 L -2.403049750832574e-14 -89.7450485229492 L 1.8899999856948853 -91.16000366210936 L 30.288000106811523 -108.45899963378903 L 60.41699981689453 -123.05200195312497 L 65.53600311279297 -124.94525909423825 L 82.10151672363281 -131.0720062255859 L 92.11100006103516 -134.77400207519528 L 96.71499633789062 -135.88400268554685 L 101.33699798583984 -136.34100341796872 L 105.91699981689453 -136.16700744628903 L 110.39900207519531 -135.3869934082031 L 114.72000122070312 -134.02299499511716 L 118.82099914550781 -132.0980072021484 L 120.41500854492188 -131.0720062255859 L 122.64600372314453 -129.63600158691403 L 123.30426788330078 -129.0740051269531 L 126.13300323486328 -126.65899658203122 L 129.22300720214844 -123.19200134277341 L 131.07200622558594 -120.42868041992185 L 131.8560028076172 -119.25700378417966 L 132.70700073242188 -117.68099975585935 L 133.46600341796875 -116.07800292968747 L 134.13600158691406 -114.45099639892575 L 134.71800231933594 -112.80200195312497 L 135.2100067138672 -111.13600158691403 L 135.61500549316406 -109.45600128173825 L 135.9320068359375 -107.76499938964841 L 136.16299438476562 -106.06500244140622 L 136.3070068359375 -104.36199951171872 M 25.026697158813477 -65.53600311279295 L 0 -40.50858306884765 L -40.507415771484375 1.1102230246251565e-16 L -106.0415267944336 65.53600311279295 L -124.46600341796875 83.96099853515624 L -107.09500122070312 101.33300018310544 L -71.29920196533203 65.53600311279295 L -5.765402793884277 1.1102230246251565e-16 L 0 -5.765596389770507 L 59.76839828491211 -65.53600311279295 L 65.53600311279297 -71.30379486083983 L 101.35900115966797 -107.12799835205075 L 83.98799896240234 -124.49900054931638 L 65.53600311279297 -106.04647064208982 L 25.026697158813477 -65.53600311279295 z" fill="none" stroke="rgb(255,0,0)" stroke-width="0.001mm" />
</svg>